# xmcd
#
# Track frame offsets:
# 150
# 15705
# 28890
# 42592
# 56550
# 69887
# 84512
# 98352
# 112642
# 124425
# 140387
# 154212
# 168445
# 180025
# 191315
# 204305
# 215675
# 229850
# 244267
# 255102
# 267512
# 279715
# 293605
# 307545
#
# Disc length: 4250 seconds
#
#
# Revision: 0
# Processed by: cddbd v1.5.1PL2 Copyright (c) Steve Scherf et al.
# Submitted via: FreeRIP 2.942 
#
DISCID=3f109818
DTITLE=Tex Morton - Regal Zopnophone Collection Vol 2
DYEAR=1993
DGENRE=Country
TTITLE0=Frieght Train Yodel
TTITLE1=Aristocrat
TTITLE2=Beautiful Queensland
TTITLE3=She came Rolling down the Mountain
TTITLE4=If you please me Give me Heaven
TTITLE5=Just plain folk
TTITLE6=Old Boko and me
TTITLE7=The Stockmans last bed
TTITLE8=Old Rover
TTITLE9=Youll never be missed
TTITLE10=In the Luggage van ahead
TTITLE11=The Drovers wife
TTITLE12=Come back to the valley
TTITLE13=Everything but you
TTITLE14=Mandrake
TTITLE15=Dont say goodbye
TTITLE16=Old Shep
TTITLE17=Through the sin of the son
TTITLE18=When the cactus is in bloom
TTITLE19=Rover no more
TTITLE20=the flowers never bloom in the lonesome valley
TTITLE21=The story of Parson Joe
TTITLE22=The good old droving days
TTITLE23=neath the silver willow tree
EXTD=
EXTT0=
EXTT1=
EXTT2=
EXTT3=
EXTT4=
EXTT5=
EXTT6=
EXTT7=
EXTT8=
EXTT9=
EXTT10=
EXTT11=
EXTT12=
EXTT13=
EXTT14=
EXTT15=
EXTT16=
EXTT17=
EXTT18=
EXTT19=
EXTT20=
EXTT21=
EXTT22=
EXTT23=
PLAYORDER=
